<?xml version="1.0" encoding="UTF-8"?>
<svg xmlns="http://www.w3.org/2000/svg" xmlns:xlink="http://www.w3.org/1999/xlink" viewBox="0 0 24 24" version="1.1" width="24px" height="24px">
<g id="surface1">
<path style=" " d="M 12 0 C 5.371094 0 0 5.371094 0 12 C 0 18.628906 5.371094 24 12 24 C 18.628906 24 24 18.628906 24 12 C 24 5.371094 18.628906 0 12 0 Z M 12 2 C 17.523438 2 22 6.476563 22 12 C 22 17.523438 17.523438 22 12 22 C 6.476563 22 2 17.523438 2 12 C 2 6.476563 6.476563 2 12 2 Z M 10.9375 3.875 L 10.5 12.0625 L 10.59375 12.9375 L 16.75 18.375 L 17.71875 17.375 L 12.625 11.96875 L 12.1875 3.875 Z "/>
</g>
</svg>
